<svg xmlns="http://www.w3.org/2000/svg" width="525.347" height="95.345" viewBox="0 0 138.998 25.227"><defs><linearGradient id="a" x1="0" x2="1" y1="0" y2="0" gradientTransform="rotate(-90 69 -37.997)scale(8.00369)" gradientUnits="userSpaceOnUse" spreadMethod="pad"><stop offset="0" style="stop-opacity:1;stop-color:#a28658 icc-color(sRGB IEC61966-2 .1,.63528442,.52548218,.34509277)"/><stop offset=".175" style="stop-opacity:1;stop-color:#9b7e4f icc-color(sRGB IEC61966-2 .1,.60783386,.49411011,.30979919)"/><stop offset=".951" style="stop-opacity:1;stop-color:#785722 icc-color(sRGB IEC61966-2 .1,.47058105,.34117126,.1333313)"/><stop offset="1" style="stop-opacity:1;stop-color:#785722 icc-color(sRGB IEC61966-2 .1,.47058105,.34117126,.1333313)"/></linearGradient><linearGradient id="b" x1="0" x2="1" y1="0" y2="0" gradientTransform="rotate(-90 77.597 -29.386)scale(17.20843)" gradientUnits="userSpaceOnUse" spreadMethod="pad"><stop offset="0" style="stop-opacity:1;stop-color:#a28658 icc-color(sRGB IEC61966-2 .1,.63528442,.52548218,.34509277)"/><stop offset="0" style="stop-opacity:1;stop-color:#a28658 icc-color(sRGB IEC61966-2 .1,.63528442,.52548218,.34509277)"/><stop offset="1" style="stop-opacity:1;stop-color:#785722 icc-color(sRGB IEC61966-2 .1,.47058105,.34117126,.1333313)"/></linearGradient><linearGradient id="c" x1="0" x2="1" y1="0" y2="0" gradientTransform="rotate(-90 71.06 -31.296)scale(.46334)" gradientUnits="userSpaceOnUse" spreadMethod="pad"><stop offset="0" style="stop-opacity:1;stop-color:#a28658 icc-color(sRGB IEC61966-2 .1,.63528442,.52548218,.34509277)"/><stop offset="0" style="stop-opacity:1;stop-color:#a28658 icc-color(sRGB IEC61966-2 .1,.63528442,.52548218,.34509277)"/><stop offset="1" style="stop-opacity:1;stop-color:#785722 icc-color(sRGB IEC61966-2 .1,.47058105,.34117126,.1333313)"/></linearGradient><linearGradient id="d" x1="0" x2="1" y1="0" y2="0" gradientTransform="rotate(-90 71.06 -31.07)scale(.22656)" gradientUnits="userSpaceOnUse" spreadMethod="pad"><stop offset="0" style="stop-opacity:1;stop-color:#a28658 icc-color(sRGB IEC61966-2 .1,.63528442,.52548218,.34509277)"/><stop offset="0" style="stop-opacity:1;stop-color:#a28658 icc-color(sRGB IEC61966-2 .1,.63528442,.52548218,.34509277)"/><stop offset="1" style="stop-opacity:1;stop-color:#785722 icc-color(sRGB IEC61966-2 .1,.47058105,.34117126,.1333313)"/></linearGradient><linearGradient id="e" x1="0" x2="1" y1="0" y2="0" gradientTransform="rotate(-90 75.696 -35.958)scale(.45313)" gradientUnits="userSpaceOnUse" spreadMethod="pad"><stop offset="0" style="stop-opacity:1;stop-color:#a28658 icc-color(sRGB IEC61966-2 .1,.63528442,.52548218,.34509277)"/><stop offset="0" style="stop-opacity:1;stop-color:#a28658 icc-color(sRGB IEC61966-2 .1,.63528442,.52548218,.34509277)"/><stop offset="1" style="stop-opacity:1;stop-color:#785722 icc-color(sRGB IEC61966-2 .1,.47058105,.34117126,.1333313)"/></linearGradient><linearGradient id="f" x1="0" x2="1" y1="0" y2="0" gradientTransform="rotate(-90 43.608 -4.058)scale(.01366)" gradientUnits="userSpaceOnUse" spreadMethod="pad"><stop offset="0" style="stop-opacity:1;stop-color:#a28658 icc-color(sRGB IEC61966-2 .1,.63528442,.52548218,.34509277)"/><stop offset="0" style="stop-opacity:1;stop-color:#a28658 icc-color(sRGB IEC61966-2 .1,.63528442,.52548218,.34509277)"/><stop offset="1" style="stop-opacity:1;stop-color:#785722 icc-color(sRGB IEC61966-2 .1,.47058105,.34117126,.1333313)"/></linearGradient><linearGradient id="g" x1="0" x2="1" y1="0" y2="0" gradientTransform="rotate(-90 43.642 -4.32)scale(.46308)" gradientUnits="userSpaceOnUse" spreadMethod="pad"><stop offset="0" style="stop-opacity:1;stop-color:#a28658 icc-color(sRGB IEC61966-2 .1,.63528442,.52548218,.34509277)"/><stop offset="0" style="stop-opacity:1;stop-color:#a28658 icc-color(sRGB IEC61966-2 .1,.63528442,.52548218,.34509277)"/><stop offset="1" style="stop-opacity:1;stop-color:#785722 icc-color(sRGB IEC61966-2 .1,.47058105,.34117126,.1333313)"/></linearGradient><linearGradient id="h" x1="0" x2="1" y1="0" y2="0" gradientTransform="rotate(-90 43.643 -4.094)scale(.22726)" gradientUnits="userSpaceOnUse" spreadMethod="pad"><stop offset="0" style="stop-opacity:1;stop-color:#a28658 icc-color(sRGB IEC61966-2 .1,.63528442,.52548218,.34509277)"/><stop offset="0" style="stop-opacity:1;stop-color:#a28658 icc-color(sRGB IEC61966-2 .1,.63528442,.52548218,.34509277)"/><stop offset="1" style="stop-opacity:1;stop-color:#785722 icc-color(sRGB IEC61966-2 .1,.47058105,.34117126,.1333313)"/></linearGradient><linearGradient id="i" x1="0" x2="1" y1="0" y2="0" gradientTransform="rotate(-90 83.435 -35.224)scale(9.71454)" gradientUnits="userSpaceOnUse" spreadMethod="pad"><stop offset="0" style="stop-opacity:1;stop-color:#a28658 icc-color(sRGB IEC61966-2 .1,.63528442,.52548218,.34509277)"/><stop offset="0" style="stop-opacity:1;stop-color:#a28658 icc-color(sRGB IEC61966-2 .1,.63528442,.52548218,.34509277)"/><stop offset="1" style="stop-opacity:1;stop-color:#785722 icc-color(sRGB IEC61966-2 .1,.47058105,.34117126,.1333313)"/></linearGradient><linearGradient id="j" x1="0" x2="1" y1="0" y2="0" gradientTransform="rotate(-90 103 -54.789)scale(9.71454)" gradientUnits="userSpaceOnUse" spreadMethod="pad"><stop offset="0" style="stop-opacity:1;stop-color:#a28658 icc-color(sRGB IEC61966-2 .1,.63528442,.52548218,.34509277)"/><stop offset="0" style="stop-opacity:1;stop-color:#a28658 icc-color(sRGB IEC61966-2 .1,.63528442,.52548218,.34509277)"/><stop offset="1" style="stop-opacity:1;stop-color:#785722 icc-color(sRGB IEC61966-2 .1,.47058105,.34117126,.1333313)"/></linearGradient><linearGradient id="k" x1="0" x2="1" y1="0" y2="0" gradientTransform="rotate(-90 93.703 -45.492)scale(9.71454)" gradientUnits="userSpaceOnUse" spreadMethod="pad"><stop offset="0" style="stop-opacity:1;stop-color:#a28658 icc-color(sRGB IEC61966-2 .1,.63528442,.52548218,.34509277)"/><stop offset="0" style="stop-opacity:1;stop-color:#a28658 icc-color(sRGB IEC61966-2 .1,.63528442,.52548218,.34509277)"/><stop offset="1" style="stop-opacity:1;stop-color:#785722 icc-color(sRGB IEC61966-2 .1,.47058105,.34117126,.1333313)"/></linearGradient><linearGradient id="l" x1="0" x2="1" y1="0" y2="0" gradientTransform="rotate(-90 88.009 -40.912)scale(8.6009)" gradientUnits="userSpaceOnUse" spreadMethod="pad"><stop offset="0" style="stop-opacity:1;stop-color:#a28658 icc-color(sRGB IEC61966-2 .1,.63528442,.52548218,.34509277)"/><stop offset="0" style="stop-opacity:1;stop-color:#a28658 icc-color(sRGB IEC61966-2 .1,.63528442,.52548218,.34509277)"/><stop offset="1" style="stop-opacity:1;stop-color:#785722 icc-color(sRGB IEC61966-2 .1,.47058105,.34117126,.1333313)"/></linearGradient><linearGradient id="m" x1="0" x2="1" y1="0" y2="0" gradientTransform="rotate(-90 93.146 -46.05)scale(8.6009)" gradientUnits="userSpaceOnUse" spreadMethod="pad"><stop offset="0" style="stop-opacity:1;stop-color:#a28658 icc-color(sRGB IEC61966-2 .1,.63528442,.52548218,.34509277)"/><stop offset="0" style="stop-opacity:1;stop-color:#a28658 icc-color(sRGB IEC61966-2 .1,.63528442,.52548218,.34509277)"/><stop offset="1" style="stop-opacity:1;stop-color:#785722 icc-color(sRGB IEC61966-2 .1,.47058105,.34117126,.1333313)"/></linearGradient><linearGradient id="n" x1="0" x2="1" y1="0" y2="0" gradientTransform="rotate(-90 97.913 -50.666)scale(8.89479)" gradientUnits="userSpaceOnUse" spreadMethod="pad"><stop offset="0" style="stop-opacity:1;stop-color:#a28658 icc-color(sRGB IEC61966-2 .1,.63528442,.52548218,.34509277)"/><stop offset="0" style="stop-opacity:1;stop-color:#a28658 icc-color(sRGB IEC61966-2 .1,.63528442,.52548218,.34509277)"/><stop offset="1" style="stop-opacity:1;stop-color:#785722 icc-color(sRGB IEC61966-2 .1,.47058105,.34117126,.1333313)"/></linearGradient><linearGradient id="o" x1="0" x2="1" y1="0" y2="0" gradientTransform="rotate(-90 102.443 -55.346)scale(8.6009)" gradientUnits="userSpaceOnUse" spreadMethod="pad"><stop offset="0" style="stop-opacity:1;stop-color:#a28658 icc-color(sRGB IEC61966-2 .1,.63528442,.52548218,.34509277)"/><stop offset="0" style="stop-opacity:1;stop-color:#a28658 icc-color(sRGB IEC61966-2 .1,.63528442,.52548218,.34509277)"/><stop offset="1" style="stop-opacity:1;stop-color:#785722 icc-color(sRGB IEC61966-2 .1,.47058105,.34117126,.1333313)"/></linearGradient><linearGradient id="p" x1="0" x2="1" y1="0" y2="0" gradientTransform="rotate(-90 107.928 -59.716)scale(9.71608)" gradientUnits="userSpaceOnUse" spreadMethod="pad"><stop offset="0" style="stop-opacity:1;stop-color:#a28658 icc-color(sRGB IEC61966-2 .1,.63528442,.52548218,.34509277)"/><stop offset="0" style="stop-opacity:1;stop-color:#a28658 icc-color(sRGB IEC61966-2 .1,.63528442,.52548218,.34509277)"/><stop offset="1" style="stop-opacity:1;stop-color:#785722 icc-color(sRGB IEC61966-2 .1,.47058105,.34117126,.1333313)"/></linearGradient><linearGradient id="q" x1="0" x2="1" y1="0" y2="0" gradientTransform="rotate(-90 113.119 -65.872)scale(8.89479)" gradientUnits="userSpaceOnUse" spreadMethod="pad"><stop offset="0" style="stop-opacity:1;stop-color:#a28658 icc-color(sRGB IEC61966-2 .1,.63528442,.52548218,.34509277)"/><stop offset="0" style="stop-opacity:1;stop-color:#a28658 icc-color(sRGB IEC61966-2 .1,.63528442,.52548218,.34509277)"/><stop offset="1" style="stop-opacity:1;stop-color:#785722 icc-color(sRGB IEC61966-2 .1,.47058105,.34117126,.1333313)"/></linearGradient><linearGradient id="r" x1="0" x2="1" y1="0" y2="0" gradientTransform="rotate(-90 41.578 -11.016)scale(5.61674)" gradientUnits="userSpaceOnUse" spreadMethod="pad"><stop offset="0" style="stop-opacity:1;stop-color:#a28658 icc-color(sRGB IEC61966-2 .1,.63528442,.52548218,.34509277)"/><stop offset="0" style="stop-opacity:1;stop-color:#a28658 icc-color(sRGB IEC61966-2 .1,.63528442,.52548218,.34509277)"/><stop offset="1" style="stop-opacity:1;stop-color:#785722 icc-color(sRGB IEC61966-2 .1,.47058105,.34117126,.1333313)"/></linearGradient><linearGradient id="s" x1="0" x2="1" y1="0" y2="0" gradientTransform="rotate(-90 54.25 -7.023)scale(8.79156)" gradientUnits="userSpaceOnUse" spreadMethod="pad"><stop offset="0" style="stop-opacity:1;stop-color:#a28658 icc-color(sRGB IEC61966-2 .1,.63528442,.52548218,.34509277)"/><stop offset="0" style="stop-opacity:1;stop-color:#a28658 icc-color(sRGB IEC61966-2 .1,.63528442,.52548218,.34509277)"/><stop offset="1" style="stop-opacity:1;stop-color:#785722 icc-color(sRGB IEC61966-2 .1,.47058105,.34117126,.1333313)"/></linearGradient><linearGradient id="t" x1="0" x2="1" y1="0" y2="0" gradientTransform="rotate(-90 59.748 -12.52)scale(8.7915)" gradientUnits="userSpaceOnUse" spreadMethod="pad"><stop offset="0" style="stop-opacity:1;stop-color:#a28658 icc-color(sRGB IEC61966-2 .1,.63528442,.52548218,.34509277)"/><stop offset="0" style="stop-opacity:1;stop-color:#a28658 icc-color(sRGB IEC61966-2 .1,.63528442,.52548218,.34509277)"/><stop offset="1" style="stop-opacity:1;stop-color:#785722 icc-color(sRGB IEC61966-2 .1,.47058105,.34117126,.1333313)"/></linearGradient><linearGradient id="u" x1="0" x2="1" y1="0" y2="0" gradientTransform="rotate(-90 48.12 -.35)scale(24.78406)" gradientUnits="userSpaceOnUse" spreadMethod="pad"><stop offset="0" style="stop-opacity:1;stop-color:#a28658 icc-color(sRGB IEC61966-2 .1,.63528442,.52548218,.34509277)"/><stop offset="0" style="stop-opacity:1;stop-color:#a28658 icc-color(sRGB IEC61966-2 .1,.63528442,.52548218,.34509277)"/><stop offset="1" style="stop-opacity:1;stop-color:#785722 icc-color(sRGB IEC61966-2 .1,.47058105,.34117126,.1333313)"/></linearGradient><linearGradient id="v" x1="0" x2="1" y1="0" y2="0" gradientTransform="rotate(-90 41.575 -11.014)scale(5.61674)" gradientUnits="userSpaceOnUse" spreadMethod="pad"><stop offset="0" style="stop-opacity:1;stop-color:#a28658 icc-color(sRGB IEC61966-2 .1,.63528442,.52548218,.34509277)"/><stop offset="0" style="stop-opacity:1;stop-color:#a28658 icc-color(sRGB IEC61966-2 .1,.63528442,.52548218,.34509277)"/><stop offset="1" style="stop-opacity:1;stop-color:#785722 icc-color(sRGB IEC61966-2 .1,.47058105,.34117126,.1333313)"/></linearGradient><linearGradient id="w" x1="0" x2="1" y1="0" y2="0" gradientTransform="rotate(-60 81.12 -45.805)scale(10.374)" gradientUnits="userSpaceOnUse" spreadMethod="pad"><stop offset="0" style="stop-opacity:1;stop-color:#a28658 icc-color(sRGB IEC61966-2 .1,.63528442,.52548218,.34509277)"/><stop offset="0" style="stop-opacity:1;stop-color:#a28658 icc-color(sRGB IEC61966-2 .1,.63528442,.52548218,.34509277)"/><stop offset=".506" style="stop-opacity:1;stop-color:#8d6e3d icc-color(sRGB IEC61966-2 .1,.55293274,.43136597,.23921204)"/><stop offset="1" style="stop-opacity:1;stop-color:#785722 icc-color(sRGB IEC61966-2 .1,.47058105,.34117126,.1333313)"/></linearGradient><linearGradient id="x" x1="0" x2="1" y1="0" y2="0" gradientTransform="rotate(-90 60.07 -22.671)scale(2.5211)" gradientUnits="userSpaceOnUse" spreadMethod="pad"><stop offset="0" style="stop-opacity:1;stop-color:#a28658 icc-color(sRGB IEC61966-2 .1,.63528442,.52548218,.34509277)"/><stop offset="0" style="stop-opacity:1;stop-color:#a28658 icc-color(sRGB IEC61966-2 .1,.63528442,.52548218,.34509277)"/><stop offset="1" style="stop-opacity:1;stop-color:#785722 icc-color(sRGB IEC61966-2 .1,.47058105,.34117126,.1333313)"/></linearGradient></defs><path d="M106.57 23c-.144 0-.26.12-.26.268v1.945h.458v.428c-.633.11-1.117.682-1.117 1.37 0 .538.297 1.005.73 1.235v.552h-.385v.695h.385v1.51h1.204v-1.51h.385v-.695h-.385v-.538c.448-.225.757-.7.757-1.25 0-.684-.478-1.252-1.108-1.368v-.429h.458V23.27a.266.266 0 0 0-.262-.27zm-.026.398h.915v1.501h-.225v-.404h-.466v.404h-.225zm-.42 3.613c0-.5.392-.906.877-.906.484 0 .877.406.877.906s-.393.905-.877.905c-.485 0-.877-.405-.877-.905" style="fill:url(#a);stroke:none;stroke-width:.151563" transform="translate(-43.082 -22.985)"/><path d="m106.374 31.003-.026.001c-.197.023-.352.312-.352.666v.985c0 .296.109.549.26.634q.01.004.019.01l-3.773 6.001a.5.5 0 0 1-.08.18l-.211.284-.143.226-.017-.014.16-.212.29-.464a.64.64 0 0 0-.044-.422l-.262-.513c-.093-.182-.26-.208-.373-.058l-.485.647-.262-.427-.384-.867c.465-.353.99-.741.99-.741s-1.885-1.87-2.746-3.03-1.05-2.379-1.05-2.379-.34 1.174-.404 2.915c-.062 1.74.485 3.87.97 5.335.484 1.463.645 1.537.645 1.537s.108-1.45.27-1.944l.798.595.22.279-.086.114c-.113.152-.128.42-.035.603l.262.513c.094.182.26.208.373.058l.243-.324c.707.901 1.642 2.107 2.254 2.932 1.094 1.478 3.588 4.088 3.588 4.088s2.494-2.61 3.589-4.088c.62-.837 1.574-2.065 2.284-2.971l.258.344c.112.152.28.126.373-.056l.262-.515c.093-.182.077-.451-.036-.603l-.101-.134c.12-.154.19-.24.19-.24l.799-.595c.161.494.269 1.944.269 1.944s.161-.074.646-1.537c.484-1.465 1.03-3.596.969-5.335-.063-1.741-.404-2.915-.404-2.915s-.189 1.218-1.05 2.378-2.745 3.03-2.745 3.03.524.39.989.742l-.384.867-.235.383-.466-.622c-.113-.15-.28-.124-.373.058l-.263.513a.65.65 0 0 0-.042.426l-3.748-5.962h-.101q.045 0 .089-.02c.166-.069.29-.333.29-.648v-.985c0-.335-.14-.613-.323-.659a.2.2 0 0 0-.056-.008zm-.093 2.286q.06.033.128.034h-.035a.2.2 0 0 1-.1-.024zm1.99 2.063h.017l.001.029zm-4.68 5.589-.627-.184-.396-.34 3.106-4.94.004-.125h.076l-.08.126c-.131 3.49-1.786 4.594-1.786 4.594l-.049.959zm6.487-.87s-1.685-1.123-1.789-4.69l3.146 5.004-.433.372-.627.184-.248.09zm1.512-.609a.5.5 0 0 1-.078-.177l.285.453z" style="fill:url(#b);stroke:none;stroke-width:.151563" transform="translate(-43.082 -22.985)"/><path d="m102.21 39.764.212-.283a.5.5 0 0 0 .08-.18z" style="fill:url(#c);stroke:none;stroke-width:.151563" transform="translate(-43.082 -22.985)"/><path d="m102.051 39.976.017.014.143-.226z" style="fill:url(#d);stroke:none;stroke-width:.151563" transform="translate(-43.082 -22.985)"/><path d="m111.59 39.462.207.276-.285-.453a.5.5 0 0 0 .078.177" style="fill:url(#e);stroke:none;stroke-width:.151563" transform="translate(-43.082 -22.985)"/><path d="M47.673 39.55v-.002l-.015-.012z" style="fill:url(#f);stroke:none;stroke-width:.151563" transform="translate(-43.082 -22.985)"/><path d="m47.817 39.323.211-.283a.5.5 0 0 0 .08-.18z" style="fill:url(#g);stroke:none;stroke-width:.151563" transform="translate(-43.082 -22.985)"/><path d="m47.658 39.536.015.014v-.002l.144-.225z" style="fill:url(#h);stroke:none;stroke-width:.151563" transform="translate(-43.082 -22.985)"/><path d="M117.723 38.496v8.6l.936 1.115.935-1.114v-8.6z" style="fill:url(#i);stroke:none;stroke-width:.151563" transform="translate(-43.082 -22.985)"/><path d="M156.853 38.496v8.6l.936 1.115.935-1.114v-8.6z" style="fill:url(#j);stroke:none;stroke-width:.151563" transform="translate(-43.082 -22.985)"/><path d="M138.26 38.496v8.6l.936 1.115.935-1.114v-8.6z" style="fill:url(#k);stroke:none;stroke-width:.151563" transform="translate(-43.082 -22.985)"/><path d="M131.6 38.496a.61.61 0 0 0-.61.61v4.236q0 .438.012.735a4 4 0 0 0 .036.447h-.024a8 8 0 0 0-.2-.339l-.225-.357-3.473-5.332h-2.034v8.065c0 .296.24.536.537.536h1.233v-4.828q0-.468-.012-.813a8 8 0 0 0-.036-.567h.024q.06.126.168.3t.258.408l3.598 5.5h1.908v-8.6z" style="fill:url(#l);stroke:none;stroke-width:.151563" transform="translate(-43.082 -22.985)"/><path d="M138.26 47.097h1.871v-8.601h-1.871z" style="fill:url(#m);stroke:none;stroke-width:.151563" transform="translate(-43.082 -22.985)"/><path d="M146.33 39.645q-1.257 1.292-1.257 3.26 0 2.087 1.149 3.214 1.148 1.128 3.158 1.128.743 0 1.385-.141a6.3 6.3 0 0 0 1.32-.459l-.696-1.505a4.3 4.3 0 0 1-.963.353 3.7 3.7 0 0 1-.812.108q-1.194 0-1.88-.75-.688-.748-.687-2.075 0-1.295.782-2.05a2.6 2.6 0 0 1 1.869-.756q.48 0 .896.077.416.08.849.258l.576-1.517a6.2 6.2 0 0 0-1.13-.333 7 7 0 0 0-1.251-.105q-2.052 0-3.308 1.293" style="fill:url(#n);stroke:none;stroke-width:.151563" transform="translate(-43.082 -22.985)"/><path d="M156.853 47.097h1.871v-8.601h-1.871z" style="fill:url(#o);stroke:none;stroke-width:.151563" transform="translate(-43.082 -22.985)"/><path d="M169.305 38.495v5.076q0 .163-.01.314v.002a.6.6 0 0 0-.03.116c-.153.856-1.604 1.618-1.604 1.618h-.027l.01-.022s-1.417-.77-1.605-1.618a1 1 0 0 0-.038-.13 4 4 0 0 1-.012-.352v-5.004h-1.878v4.973q0 1.569.591 2.481c-.039.016 1.2 1.629 2.96 2.263 1.668-.602 2.833-2.147 2.915-2.316l.002-.003q.599-.933.598-2.509v-4.889z" style="fill:url(#p);stroke:none;stroke-width:.151563" transform="translate(-43.082 -22.985)"/><path d="M177.045 39.11q-.837.76-.837 1.845 0 1.074.648 1.676.647.603 2.075.94.726.173 1.002.422t.276.699q0 .486-.345.758-.345.274-1.035.273-.534 0-1.02-.14t-1.133-.531l-.774 1.463q.605.348 1.37.54t1.491.192q1.613 0 2.465-.753t.852-1.964q0-1.134-.618-1.76t-2.003-.951q-.786-.192-1.089-.408t-.303-.618q0-.444.333-.68t.927-.238q.383 0 .825.124.44.123.932.398l.714-1.475a5.365 5.365 0 0 0-2.405-.57q-1.511 0-2.348.759" style="fill:url(#q);stroke:none;stroke-width:.151563" transform="translate(-43.082 -22.985)"/><path d="M52.582 30.562h.024v-5.617h-.024z" style="fill:url(#r);stroke:none;stroke-width:.151563" transform="translate(-43.082 -22.985)"/><path d="M61.383 38.435q-1.89 0-2.987 1.185-1.096 1.186-1.103 3.277 0 1.977 1.062 3.153 1.062 1.177 2.876 1.177 1.852 0 2.938-1.21 1.085-1.21 1.085-3.26 0-1.992-1.025-3.161-1.017-1.16-2.822-1.16zm-1.709 6.532q-.59-.742-.59-2.112 0-1.362.594-2.132.593-.771 1.63-.771 1.05 0 1.602.73.552.729.552 2.124 0 1.41-.548 2.156-.549.747-1.6.747-1.05 0-1.64-.742" style="fill:url(#s);stroke:none;stroke-width:.151563" transform="translate(-43.082 -22.985)"/><path d="M70.446 39.161q-.816.726-.816 1.866 0 .992.586 1.6.586.607 2.037.975.718.18 1.017.455a.9.9 0 0 1 .299.685q0 .517-.36.775-.358.258-1.009.258-.597 0-1.107-.209a4.3 4.3 0 0 1-.964-.553l-.764 1.345q.627.435 1.32.652a4.8 4.8 0 0 0 1.447.217q1.398 0 2.22-.726.82-.726.82-1.948 0-1.033-.583-1.652-.582-.62-1.837-.947-.831-.213-1.183-.44-.351-.224-.351-.692 0-.443.343-.693.345-.25.964-.25.438 0 .854.148.417.147.915.492l.711-1.313a4.1 4.1 0 0 0-1.164-.586 4.2 4.2 0 0 0-1.255-.185q-1.323 0-2.14.726" style="fill:url(#t);stroke:none;stroke-width:.151563" transform="translate(-43.082 -22.985)"/><path d="M47.345 24.092h-.429v-.458h-1.945a.267.267 0 0 0-.27.262v.861c0 .144.122.26.27.26h1.945v-.458h.429c.11.634.682 1.117 1.369 1.117.538 0 1.006-.297 1.235-.731h.552v.384h.695v-.384h1.41v5.617h-.627l-.025.001c-.197.023-.353.311-.353.665v.986c0 .296.11.549.26.632l.019.01-3.773 6.003a.5.5 0 0 1-.079.181l-.211.283-.144.225v.002l-.015-.014-.002-.002.16-.211.291-.464a.64.64 0 0 0-.045-.423l-.263-.513c-.092-.181-.26-.207-.372-.058l-.486.648-.261-.428-.383-.866c.465-.354.988-.741.988-.741s-1.883-1.872-2.744-3.032a6 6 0 0 1-1.051-2.377s-.34 1.174-.404 2.914c-.061 1.74.486 3.87.97 5.336.485 1.463.645 1.536.645 1.536s.108-1.449.269-1.944l.8.594.218.28-.085.115c-.113.15-.129.42-.036.603l.263.513c.094.181.26.207.372.056l.243-.323c.708.901 1.644 2.107 2.254 2.933 1.066 1.438 3.46 3.952 3.583 4.082l.005.005.019-.02h1.253v-24.03h-1.287v.023h-1.376v-.385h-.695v.385h-.538a1.39 1.39 0 0 0-1.25-.757c-.683 0-1.252.477-1.368 1.107m.463.234c0-.485.407-.878.906-.878s.905.393.905.878c0 .484-.405.877-.905.877s-.906-.393-.906-.877m-2.707-.458h1.5v.224h-.403v.467h.403v.224h-1.5zm6.786 8.978q.06.035.126.035h-.034a.2.2 0 0 1-.1-.024zm-2.69 7.654-.627-.185-.396-.34 3.104-4.94.005-.125h.076l-.08.125c-.13 3.491-1.786 4.595-1.786 4.595l-.048.959z" style="fill:url(#u);stroke:none;stroke-width:.151563" transform="translate(-43.082 -22.985)"/><path d="M52.572 30.562h.034v-5.617h-.034z" style="fill:url(#v);stroke:none;stroke-width:.151563" transform="translate(-43.082 -22.985)"/><path d="M80.067 38.363v8.893h5.566v-1.253h-3.92V43.38h3.429v-1.247h-3.43v-2.517h3.7v-1.253z" style="fill:url(#w);stroke:none;stroke-width:.151563" transform="translate(-43.082 -22.985)"/><path d="m81.282 36.396.68 1.002 2.237-1.52-.68-1.001z" style="fill:url(#x);stroke:none;stroke-width:.151563" transform="translate(-43.082 -22.985)"/></svg>